<?xml version="1.0" encoding="UTF-8" standalone="no"?><!DOCTYPE svg PUBLIC "-//W3C//DTD SVG 1.1//EN" "http://www.w3.org/Graphics/SVG/1.1/DTD/svg11.dtd"><svg width="100%" height="100%" viewBox="0 0 1459 188" version="1.1" xmlns="http://www.w3.org/2000/svg" xmlns:xlink="http://www.w3.org/1999/xlink" xml:space="preserve" xmlns:serif="http://www.serif.com/" style="fill-rule:evenodd;clip-rule:evenodd;stroke-linejoin:round;stroke-miterlimit:2;"><g><path d="M388.147,186.73l-15.521,0l0,-61.842l-10.23,30.479l-6.908,0l-10.241,-30.479l0,61.842l-15.344,0l0,-115.893l7.675,0l21.353,60.359l21.532,-60.359l7.684,0l0,115.893Z" style="fill:#fff;fill-rule:nonzero;"/><path d="M432.687,153.403l-6.329,-48.482l-6.318,48.482l12.647,0Zm19.413,33.326l-14.901,0l-2.864,-20.559l-15.943,0l-2.713,20.559l-14.154,0l17.607,-115.889l15.37,0l17.598,115.889Z" style="fill:#fff;fill-rule:nonzero;"/><path d="M514.714,186.73l-7.685,0l-26.033,-66.043l0,66.043l-15.354,0l0,-115.893l7.679,0l25.883,66.506l0,-66.506l15.51,0l0,115.893Z" style="fill:#fff;fill-rule:nonzero;"/><path d="M583.943,186.73l-7.674,0l-26.034,-66.043l0,66.043l-15.364,0l0,-115.893l7.679,0l25.882,66.506l0,-66.506l15.511,0l0,115.893Z" style="fill:#fff;fill-rule:nonzero;"/><rect x="604.096" y="70.835" width="15.969" height="115.895" style="fill:#fff;fill-rule:nonzero;"/><path d="M689.142,186.73l-7.675,0l-26.044,-66.043l0,66.043l-15.354,0l0,-115.893l7.68,0l25.882,66.506l0,-66.506l15.511,0l0,115.893Z" style="fill:#fff;fill-rule:nonzero;"/><path d="M757.77,183.29c-4.524,2.8 -10.231,4.21 -17.16,4.21c-22.491,0 -33.718,-19.632 -33.718,-58.86c0,-39.041 10.638,-58.569 31.903,-58.569c3.516,0 6.892,0.453 10.09,1.364l0,12.304c-2.812,-0.589 -5.176,-0.885 -7.075,-0.885c-12.552,0 -18.807,15.255 -18.807,45.786c0,30.718 6.072,46.093 18.207,46.093c0.715,0 1.253,-0.052 1.649,-0.156l0,-24.02c0,-5.684 -0.652,-9.608 -1.956,-11.721c-0.997,-1.692 -2.708,-2.54 -5.103,-2.54c-1.21,0 -2.071,0.052 -2.567,0.146l0,-12.611c1.701,-0.292 3.454,-0.448 5.27,-0.448c12.85,0 19.267,9.504 19.267,28.532l0,31.375Z" style="fill:#fff;fill-rule:nonzero;"/><path d="M832.399,105.971c0,-14.813 -4.456,-22.23 -13.372,-22.23l0,51.059c2.499,-0.401 5.097,-2.644 7.81,-6.772c3.71,-5.59 5.562,-12.944 5.562,-22.057m16.105,0.151c0,13.303 -4.111,24.228 -12.333,32.711c-5.421,5.528 -11.128,9.088 -17.144,10.675l0,37.224l-15.964,0l0,-115.893l12.182,0c9.542,0 17.216,2.534 23.044,7.645c6.808,6.116 10.215,15.323 10.215,27.638" style="fill:#fff;fill-rule:nonzero;"/><path d="M910.218,158.226c0,9.598 -2.457,17.056 -7.366,22.37c-4.331,4.596 -9.783,6.902 -16.408,6.902c-6.532,0 -11.953,-2.306 -16.252,-6.902c-4.82,-5.314 -7.236,-12.772 -7.236,-22.37l0,-87.387l15.959,0l0,90.52c0,4.32 0.757,7.615 2.254,9.926c1.508,2.285 3.261,3.451 5.275,3.451c2.008,0 3.813,-1.166 5.41,-3.451c1.612,-2.311 2.415,-5.606 2.415,-9.926l0,-90.52l15.949,0l0,87.387Z" style="fill:#fff;fill-rule:nonzero;"/><path d="M960.942,148.452c0,-10.706 -2.864,-18.909 -8.582,-24.618c-2.118,0.697 -4.278,1.056 -6.48,1.056l0,49.091c4.127,0 7.482,-1.754 10.09,-5.251c3.303,-4.403 4.972,-11.164 4.972,-20.278m-3.167,-50.741c0,-9.113 -3.954,-13.813 -11.895,-14.11l0,28.074c7.941,-0.202 11.895,-4.856 11.895,-13.964m19.419,50.741c0,13.918 -3.71,24.14 -11.139,30.635c-5.916,5.106 -13.794,7.641 -23.618,7.641l-12.5,0l0,-115.889l12.787,0c8.332,0 15.291,2.051 20.921,6.152c6.62,4.799 9.933,11.711 9.933,20.72c0,8.999 -2.906,15.771 -8.733,20.267c2.916,2.306 5.525,5.642 7.836,10.051c2.994,6.11 4.513,12.923 4.513,20.423" style="fill:#fff;fill-rule:nonzero;"/><path d="M1031.82,186.73l-37.469,0l0,-115.893l15.949,0l0,103.147l21.52,0l0,12.746Z" style="fill:#fff;fill-rule:nonzero;"/><rect x="1045.66" y="70.835" width="15.96" height="115.895" style="fill:#fff;fill-rule:nonzero;"/><path d="M1118.81,186.446c-2.416,0.702 -5.024,1.051 -7.836,1.051c-21.276,0 -31.903,-19.627 -31.903,-58.855c0,-39.041 10.627,-58.569 31.903,-58.569c2.812,0 5.42,0.364 7.836,1.062l0,12.465c-2.713,-0.5 -4.523,-0.744 -5.421,-0.744c-12.135,0 -18.197,15.25 -18.197,45.786c0,30.718 6.161,46.093 18.505,46.093c1.19,0 2.901,-0.213 5.113,-0.599l0,12.31Z" style="fill:#fff;fill-rule:nonzero;"/><path d="M1158.54,153.403l-6.318,-48.482l-6.328,48.482l12.646,0Zm19.413,33.326l-14.9,0l-2.843,-20.559l-15.965,0l-2.712,20.559l-14.144,0l17.608,-115.889l15.349,0l17.607,115.889Z" style="fill:#fff;fill-rule:nonzero;"/><path d="M1232.13,83.601l-15.511,0l0,103.127l-15.943,0l0,-103.127l-15.5,0l0,-12.762l46.954,0l0,12.762Z" style="fill:#fff;fill-rule:nonzero;"/><rect x="1245.98" y="70.835" width="15.96" height="115.895" style="fill:#fff;fill-rule:nonzero;"/><path d="M1316.27,128.787c0,-30.625 -3.464,-45.932 -10.392,-45.932c-6.918,0 -10.383,15.307 -10.383,45.932c0,30.625 3.465,45.947 10.383,45.947c6.928,0 10.392,-15.322 10.392,-45.947m15.949,0c0,22.729 -2.802,38.791 -8.431,48.196c-4.116,6.995 -10.085,10.513 -17.91,10.513c-7.826,0 -13.847,-3.518 -18.057,-10.513c-5.614,-9.405 -8.426,-25.467 -8.426,-48.196c0,-22.719 2.812,-38.796 8.426,-48.191c4.21,-7 10.231,-10.523 18.057,-10.523c7.825,0 13.794,3.523 17.91,10.523c5.629,9.395 8.431,25.472 8.431,48.191" style="fill:#fff;fill-rule:nonzero;"/><path d="M1398.89,186.73l-7.675,0l-26.044,-66.043l0,66.043l-15.333,0l0,-115.893l7.659,0l25.882,66.506l0,-66.506l15.511,0l0,115.893Z" style="fill:#fff;fill-rule:nonzero;"/><path d="M1458.33,157.601c0,9.821 -2.942,17.436 -8.874,22.833c-5.228,4.71 -11.587,7.063 -19.126,7.063c-6.219,0 -11.436,-1.353 -15.641,-4.054l5.572,-11.264c2.702,1.593 6.073,2.4 10.069,2.4c3.115,0 5.827,-1.202 8.139,-3.612c2.598,-2.785 3.913,-6.751 3.913,-11.857c0,-8.291 -4.31,-18.56 -12.949,-30.77c-5.118,-7.297 -8.723,-13.381 -10.831,-18.243c-2.103,-4.861 -3.172,-10.04 -3.172,-15.551c0,-7.5 2.243,-13.449 6.704,-17.853c4.466,-4.413 10.455,-6.62 17.989,-6.62c5.227,0 9.385,1.01 12.479,3.014l-5.41,11.106c-2.311,-0.988 -4.727,-1.504 -7.226,-1.504c-2.609,0 -4.737,0.937 -6.396,2.79c-1.654,1.837 -2.478,4.32 -2.478,7.422c0,3.82 1.153,7.906 3.453,12.309c1.508,3.102 4.425,7.708 8.734,13.814c5.227,7.505 8.937,13.813 11.138,18.929c2.609,6.303 3.913,12.866 3.913,19.648" style="fill:#fff;fill-rule:nonzero;"/><path d="M35.44,0l109.367,0l0,114.759c6.266,-37.817 11.645,-76.504 17.467,-114.759l109.372,0l0,187.495l-103.211,0l0,-160.857c-8.425,53.244 -16.548,106.812 -24.139,160.857l-102.679,0l0,-167.524c-11.112,55.388 -21.004,111.938 -31.866,167.524l-9.751,0c11.697,-61.925 23.331,-123.919 34.918,-185.954c-0.047,-0.745 -0.078,-1.452 0.522,-1.541" style="fill:#fff;"/></g></svg>