<?xml version="1.0" encoding="utf-8"?>
<!-- Generator: Adobe Illustrator 23.0.4, SVG Export Plug-In . SVG Version: 6.00 Build 0)  -->
<svg version="1.1" id="Layer_1" xmlns="http://www.w3.org/2000/svg" xmlns:xlink="http://www.w3.org/1999/xlink" x="0px" y="0px"
	 viewBox="0 0 792 1224" style="enable-background:new 0 0 792 1224;" xml:space="preserve">
<style type="text/css">
	.st0{fill:#FFFFFF;}
</style>
<g>
	<path class="st0" d="M310.9,597.6l-6.7-6.6l0-18.8l10.9,0l0,8.9c0.1,3.9,1.7,5.8,4.8,5.8c3.3,0,4.7-1.9,4.7-5.8v-13.5l-20.7-11.6
		l0-28.3l6.4-6.5l18,0l7.1,7l0,16.6l-10.6,0l0-7.4c0.1-3.7-1.5-5.6-4.7-5.7c0,0,0,0,0,0c-1.8,0-2.9,0.4-3.7,1.2
		c-0.9,0.9-1.3,2.4-1.3,4.5v10.4l20.6,12l0,30.7l-7.1,7.1H310.9z"/>
	<path class="st0" d="M349.8,597.6l0-76.4l23.3,0l8.2,8.2l0,28.4l-8.2,8.2l-12.4,0l0,31.8H349.8z M360.7,555.4c0,0,5.3,0,5.3,0
		c1.5,0,2.4-0.3,3-0.9c0.6-0.6,0.9-1.6,0.8-2.9v-16.5c0.1-1.1-0.2-2-0.8-2.6c-0.6-0.7-1.7-1-3.1-1h-5.3V555.4z"/>
	<path class="st0" d="M411.2,597.6l-0.9-10.2l-8,0l-0.9,10.1l-11.3,0l8.1-76.4l14.7,0l9.2,76.5H411.2z M403,577l6.1,0l-3.3-33.7
		L403,577z"/>
	<path class="st0" d="M456.5,597.6l-5-32.1l-4.3,0l0,32.1l-11.1,0l0-76.4l23,0l8.1,8.1l0,28.3l-5,5l5.3,35.1H456.5z M447.2,555
		c0,0,5.3,0,5.3,0c2.6,0,3.8-1.2,3.9-3.6v-16.5c-0.1-2.3-1.3-3.5-3.6-3.5l-5.6,0V555z"/>
	<polygon class="st0" points="503.9,597.6 494.5,565.8 494.5,597.6 483.4,597.6 483.4,521.2 494.5,521.2 494.5,555.9 503.9,521.2 
		515,521.2 505.3,560.7 515.3,597.6 	"/>
	<path class="st0" d="M528,597.6l0-76.4l23.4,0l8.3,8.3v24.8l-5,5l5,5v25.4l-8.1,8.1H528z M543.7,587c0.3,0,0.5,0,0.8,0
		c2.4,0,3.7-1.4,3.8-4v-14.4c0-2.6-1.4-3.9-4.3-3.9l-5,0v22.3L543.7,587z M539,554.3l4.7,0c1.7,0,2.8-0.4,3.5-1.1
		c0.8-0.8,1.1-2.2,1-4V536c0-1.3-0.3-2.2-0.9-2.9c-0.7-0.7-1.8-1.1-3.4-1.1l-5,0V554.3z"/>
	<path class="st0" d="M582.1,597.6l-8-7.9V529l7.8-7.9l15.4,0l8.5,8.5v59.2l-8.8,8.8H582.1z M590.1,531.4c-3.5,0.3-5.2,2-5.2,5.1
		v45.4c0,1.6,0.4,2.8,1.2,3.7c0.9,0.9,2.2,1.4,4,1.5c3.6-0.2,5.4-1.9,5.3-5.2v-45.4C595.1,533.4,593.3,531.7,590.1,531.4z"/>
	<path class="st0" d="M616.1,521.2h11.3l6.9,19.8l5.8-19.8h10.7l-10.9,36.2l11.2,40.2h-11l-6.1-21.9l-6.5,21.9h-11l12.4-40.1
		L616.1,521.2z"/>
</g>
<path class="st0" d="M171,571.1v12.5h4l7.4-12.5H171z M213.6,543.9C213.6,543.9,213.6,543.9,213.6,543.9c3.5,0,6.3-2.8,6.3-6.3
	c0-3.5-2.8-6.3-6.3-6.3c0,0,0,0-0.1,0H212l-7.4,12.5L213.6,543.9z M171,531.4v14.3l21.1-14.3H171z M213.6,571.1h-2.1L193,583.6h20.6
	c3.5,0,6.3-2.8,6.3-6.3C219.9,573.9,217.1,571.1,213.6,571.1z M252.9,494.5H136.3c-2.6,0-4.7,2.1-4.7,4.7v116.6
	c0,2.6,2.1,4.7,4.7,4.7h116.6c2.6,0,4.7-2.1,4.7-4.7V499.2C257.7,496.6,255.5,494.5,252.9,494.5z M233.8,556.1l-15.7,10.6
	c4.2,1.8,7.1,5.9,7.1,10.7c0,6.4-5.2,11.6-11.6,11.6c-0.1,0-24,0-28.6,0l-19.4,13.1c-0.1,0.1-0.2,0.1-0.4,0.1
	c-0.4,0-0.7-0.3-0.7-0.7c0-0.1,0-0.3,0.1-0.4l7.2-12.2h-5.6c-0.4,0-0.7-0.3-0.7-0.7v-21.9c0-0.4,0.3-0.7,0.7-0.7h24.3
	c0.4,0,0.6,0.3,0.6,0.7c0,0.1-0.1,0.3-0.1,0.4l-11.4,19.3l38.4-25.9H159l0,0h-7.4h0c-0.4,0-0.7-0.3-0.7-0.7c0-0.2,0.1-0.5,0.3-0.6
	l14.4-9.7v-17.9v-4.7v0c0-0.4,0.3-0.6,0.7-0.6h33.7l14.8-9.9l0,0l7.8-5.3v0c0.1-0.1,0.2-0.1,0.4-0.1c0.4,0,0.7,0.3,0.7,0.7
	c0,0.1,0,0.3-0.1,0.4l-8.5,14.4c5.7,0.7,10.1,5.6,10.1,11.5c0,6.4-5.2,11.6-11.6,11.6c-0.1,0-0.1,0-0.2,0h-11.9v0h-5v0
	c-0.4,0-0.7-0.3-0.7-0.7c0-0.1,0-0.2,0.1-0.3l12.7-21.5l-41.6,28h59.2h7.4c0.4,0,0.7,0.3,0.7,0.7C234.2,555.8,234,556,233.8,556.1z"
	/>
</svg>
